<svg xmlns="http://www.w3.org/2000/svg" width="24" height="24" viewBox="0 0 24 24">
  <g id="account" transform="translate(4382)">
    <rect id="Rectangle_16412" data-name="Rectangle 16412" width="24" height="24" rx="4" transform="translate(-4382)" fill="#5d718d" opacity="0"/>
    <path id="icons8_At_sign" d="M10,2a8,8,0,0,0,0,16h4V16.4H10A6.4,6.4,0,1,1,16.4,10v1.2a1.2,1.2,0,0,1-2.4,0V10a4.031,4.031,0,1,0-1.12,2.758A2.8,2.8,0,0,0,18,11.2V10A8.012,8.012,0,0,0,10,2Zm0,5.6A2.4,2.4,0,1,1,7.6,10,2.388,2.388,0,0,1,10,7.6Z" transform="translate(-4380 2)" fill="#5d718d"/>
  </g>
</svg>
