<svg xmlns="http://www.w3.org/2000/svg" width="24" height="24" viewBox="0 0 24 24">
  <g id="apps" transform="translate(4382)">
    <rect id="Rectangle_16412" data-name="Rectangle 16412" width="24" height="24" rx="4" transform="translate(-4382)" fill="#5d718d" opacity="0"/>
    <path id="icons8_squared_menu" d="M3.889,3A.889.889,0,0,0,3,3.889V5.667a.889.889,0,0,0,.889.889H5.667a.889.889,0,0,0,.889-.889V3.889A.889.889,0,0,0,5.667,3Zm6.222,0a.889.889,0,0,0-.889.889V5.667a.889.889,0,0,0,.889.889h1.778a.889.889,0,0,0,.889-.889V3.889A.889.889,0,0,0,11.889,3Zm6.222,0a.889.889,0,0,0-.889.889V5.667a.889.889,0,0,0,.889.889h1.778A.889.889,0,0,0,19,5.667V3.889A.889.889,0,0,0,18.111,3ZM3.889,9.222A.889.889,0,0,0,3,10.111v1.778a.889.889,0,0,0,.889.889H5.667a.889.889,0,0,0,.889-.889V10.111a.889.889,0,0,0-.889-.889Zm6.222,0a.889.889,0,0,0-.889.889v1.778a.889.889,0,0,0,.889.889h1.778a.889.889,0,0,0,.889-.889V10.111a.889.889,0,0,0-.889-.889Zm6.222,0a.889.889,0,0,0-.889.889v1.778a.889.889,0,0,0,.889.889h1.778A.889.889,0,0,0,19,11.889V10.111a.889.889,0,0,0-.889-.889ZM3.889,15.444A.889.889,0,0,0,3,16.333v1.778A.889.889,0,0,0,3.889,19H5.667a.889.889,0,0,0,.889-.889V16.333a.889.889,0,0,0-.889-.889Zm6.222,0a.889.889,0,0,0-.889.889v1.778a.889.889,0,0,0,.889.889h1.778a.889.889,0,0,0,.889-.889V16.333a.889.889,0,0,0-.889-.889Zm6.222,0a.889.889,0,0,0-.889.889v1.778a.889.889,0,0,0,.889.889h1.778A.889.889,0,0,0,19,18.111V16.333a.889.889,0,0,0-.889-.889Z" transform="translate(-4381 1)" fill="#5d718d"/>
  </g>
</svg>
