<svg xmlns="http://www.w3.org/2000/svg" width="24" height="24" viewBox="0 0 24 24">
  <g id="directory" transform="translate(4382)">
    <rect id="Rectangle_16412" data-name="Rectangle 16412" width="24" height="24" rx="4" transform="translate(-4382)" fill="#5d718d" opacity="0"/>
    <path id="icons8_user_2" d="M11,3a3.556,3.556,0,1,0,3.556,3.556A3.569,3.569,0,0,0,11,3Zm0,1.778A1.778,1.778,0,1,1,9.222,6.556,1.764,1.764,0,0,1,11,4.778Zm0,8a14.175,14.175,0,0,0-4.934.974,7.421,7.421,0,0,0-2.03,1.132A2.508,2.508,0,0,0,3,16.778V19H19V16.778a2.508,2.508,0,0,0-1.036-1.894,7.421,7.421,0,0,0-2.03-1.132A14.176,14.176,0,0,0,11,12.778Zm0,1.778a12.882,12.882,0,0,1,4.283.849,5.969,5.969,0,0,1,1.543.846c.336.279.4.47.4.528v.444H4.778v-.444c0-.058.06-.248.4-.528A5.969,5.969,0,0,1,6.717,15.4,12.882,12.882,0,0,1,11,14.556Z" transform="translate(-4381 1)" fill="#5d718d"/>
  </g>
</svg>
