<svg xmlns="http://www.w3.org/2000/svg" width="20" height="20" viewBox="0 0 20 20">
  <g id="licenses" transform="translate(-480 -613)">
    <rect id="Rectangle_16537" data-name="Rectangle 16537" width="20" height="20" transform="translate(480 613)" fill="#2e8b57" opacity="0"/>
    <path id="icons8_multiple_devices" d="M2.667,4A1.333,1.333,0,0,0,1.333,5.333V12a1.333,1.333,0,0,0,1.333,1.333h-2a.667.667,0,0,0,0,1.333h8V12H3.333a.667.667,0,0,1-.667-.667V6a.667.667,0,0,1,.667-.667H14.667A1.335,1.335,0,0,0,13.333,4Zm8.667,2.667A1.335,1.335,0,0,0,10,8v6.667A1.335,1.335,0,0,0,11.333,16h3.333A1.335,1.335,0,0,0,16,14.667V8a1.335,1.335,0,0,0-1.333-1.333ZM12,8h2a.667.667,0,0,1,.667.667v4.667A.667.667,0,0,1,14,14H12a.667.667,0,0,1-.667-.667V8.667A.667.667,0,0,1,12,8Z" transform="translate(482 613)" fill="#2e8b57"/>
  </g>
</svg>
