<svg xmlns="http://www.w3.org/2000/svg" width="24" height="24" viewBox="0 0 24 24">
  <g id="reporting" transform="translate(4382)">
    <rect id="Rectangle_16412" data-name="Rectangle 16412" width="24" height="24" rx="4" transform="translate(-4382)" fill="#5d718d" opacity="0"/>
    <path id="icons8_bar_chart" d="M14,4a.8.8,0,0,0-.8.8V16a.8.8,0,0,0,.8.8h3.2A.8.8,0,0,0,18,16V4.8a.8.8,0,0,0-.8-.8Zm.8,1.6h1.6v9.6H14.8ZM8.4,7.2a.8.8,0,0,0-.8.8v8a.8.8,0,0,0,.8.8h3.2a.8.8,0,0,0,.8-.8V8a.8.8,0,0,0-.8-.8Zm.8,1.6h1.6v6.4H9.2ZM2.8,10.4a.8.8,0,0,0-.8.8V16a.8.8,0,0,0,.8.8H6a.8.8,0,0,0,.8-.8V11.2a.8.8,0,0,0-.8-.8ZM3.6,12H5.2v3.2H3.6Z" transform="translate(-4380 2)" fill="#5d718d"/>
  </g>
</svg>
