<svg xmlns="http://www.w3.org/2000/svg" width="20" height="20" viewBox="0 0 20 20">
  <g id="subscription" transform="translate(-480 -613)">
    <rect id="Rectangle_16537" data-name="Rectangle 16537" width="20" height="20" transform="translate(480 613)" fill="#2e8b57" opacity="0"/>
    <path id="icons8_timeline_week" d="M5.4,1a.6.6,0,0,0-.6.6v.6H4.2A1.2,1.2,0,0,0,3,3.4v8.4A1.2,1.2,0,0,0,4.2,13h8.4a1.2,1.2,0,0,0,1.2-1.2V3.4a1.2,1.2,0,0,0-1.2-1.2H12V1.6a.6.6,0,1,0-1.2,0v.6H6V1.6A.6.6,0,0,0,5.4,1ZM4.2,5.2h8.4v6.6H4.2ZM6,7A.6.6,0,0,0,6,8.2H7.2A.6.6,0,1,0,7.2,7ZM9.6,8.2a.6.6,0,1,0,0,1.2h1.2a.6.6,0,1,0,0-1.2ZM6,9.4a.6.6,0,0,0,0,1.2H7.2a.6.6,0,0,0,0-1.2Z" transform="translate(482 616)" fill="#2e8b57"/>
  </g>
</svg>
