<svg xmlns="http://www.w3.org/2000/svg" width="24" height="24" viewBox="0 0 24 24">
  <g id="workspace" transform="translate(4382)">
    <rect id="Rectangle_16412" data-name="Rectangle 16412" width="24" height="24" rx="4" transform="translate(-4382)" fill="#5d718d" opacity="0"/>
    <path id="icons8_company" d="M3.6,3A1.6,1.6,0,0,0,2,4.6V15.8a1.6,1.6,0,0,0,1.6,1.6H16.4A1.6,1.6,0,0,0,18,15.8v-8a1.6,1.6,0,0,0-1.6-1.6H10V4.6A1.6,1.6,0,0,0,8.4,3Zm0,1.6H5.2V6.2H3.6Zm3.2,0H8.4V6.2H6.8ZM3.6,7.8H5.2V9.4H3.6Zm3.2,0H8.4V9.4H6.8Zm3.2,0h6.4v8H10V14.2h1.6V12.6H10V11h1.6V9.4H10Zm3.2,1.6V11h1.6V9.4ZM3.6,11H5.2v1.6H3.6Zm3.2,0H8.4v1.6H6.8Zm6.4,1.6v1.6h1.6V12.6ZM3.6,14.2H5.2v1.6H3.6Zm3.2,0H8.4v1.6H6.8Z" transform="translate(-4380 1.999)" fill="#5d718d"/>
  </g>
</svg>
