<svg id="dexef_logo_body" xmlns="http://www.w3.org/2000/svg" width="76" height="16" viewBox="0 0 76 16">
  <g id="Layer_1" data-name="Layer 1" transform="translate(0 0)">
    <path id="Path_285" data-name="Path 285" d="M383.463.23h-8.134A1.611,1.611,0,0,0,373.7,1.824V14.58a1.63,1.63,0,0,0,3.254,0V9.8h4.881a1.594,1.594,0,1,0,0-3.188h-4.881V3.418h6.508a1.609,1.609,0,0,0,1.623-1.594A1.609,1.609,0,0,0,383.463.23Z" transform="translate(-309.086 -0.202)" fill="#0075f4"/>
    <path id="Path_286" data-name="Path 286" d="M303.463,12.984h-6.508V9.8h4.881a1.594,1.594,0,1,0,0-3.188h-4.881V3.418h6.508a1.609,1.609,0,0,0,1.623-1.594A1.609,1.609,0,0,0,303.463.23h-8.134A1.64,1.64,0,0,0,294.178.7a1.582,1.582,0,0,0-.478,1.129V14.58a1.582,1.582,0,0,0,.478,1.129,1.64,1.64,0,0,0,1.151.465h8.136a1.594,1.594,0,1,0,0-3.188Z" transform="translate(-243.191 -0.202)" fill="#0075f4"/>
    <path id="Path_287" data-name="Path 287" d="M109.763,12.984h-6.508V9.8h4.881a1.594,1.594,0,1,0,0-3.188h-4.881V3.418h6.508a1.609,1.609,0,0,0,1.623-1.594A1.609,1.609,0,0,0,109.763.23h-8.134A1.611,1.611,0,0,0,100,1.824V14.58a1.611,1.611,0,0,0,1.629,1.594h8.136a1.594,1.594,0,1,0,0-3.188Z" transform="translate(-82.64 -0.202)" fill="#0075f4"/>
    <path id="Path_288" data-name="Path 288" d="M11.39,1.826A8.119,8.119,0,0,0,9.761.895,7.735,7.735,0,0,0,8.785.549,8.263,8.263,0,0,0,6.508.23H1.629A1.611,1.611,0,0,0,0,1.824V14.58a1.611,1.611,0,0,0,1.629,1.594h4.88a8.263,8.263,0,0,0,2.278-.319,7.736,7.736,0,0,0,.976-.346,7.978,7.978,0,0,0,4.826-6.38,7.9,7.9,0,0,0-3.2-7.3ZM6.508,12.987H3.254V3.418H6.508A4.826,4.826,0,0,1,11.377,8.2a4.826,4.826,0,0,1-4.869,4.783Z" transform="translate(0 -0.202)" fill="#0075f4"/>
    <g id="Group_318" data-name="Group 318" transform="translate(30.635)">
      <path id="Path_289" data-name="Path 289" d="M188.1,2.292l-.034-.03-.034-.032L188,2.2l-.034-.032c-.01-.011-.022-.021-.034-.032L187.9,2.1l-.034-.032-.032-.03L187.8,2.01l-.034-.032-.032-.03-.034-.032-.032-.03-.034-.032c-.01-.011-.022-.021-.034-.032l-.032-.03-.034-.032-.032-.03-.034-.032c-.01-.011-.022-.021-.034-.032l-.032-.038-.034-.032-.032-.03-.034-.032-.034-.032-.032-.03-.034-.032-.032-.032-.034-.03-.034-.032-.032-.03-.034-.026-.034-.032-.032-.03-.034-.032-.032-.03-.034-.032c-.01-.011-.022-.021-.034-.032l-.032-.03-.034-.032L186.748,1l-.034-.032L186.681.94l-.025-.024-.034-.032-.032-.03-.034-.032-.033-.031-.035-.03-.034-.032c-1.512-1.526-3.985.818-2.376,2.253l.032.032.034.032.034.03.032.032.034.03a.31.31,0,0,0,.034.032l.032.032.034.03.032.032.034.03a.309.309,0,0,0,.034.032l.032.032.034.03.032.032.034.03.034.032.032.032.034.03.032.032.034.032.034.03.032.032.034.03.032.032.034.032.034.03.032.032.034.03.032.032.034.032.034.03.032.032.034.03.034.032.032.032.034.03.032.032.034.03a.309.309,0,0,0,.034.032l.032.032.034.03.032.032.034.032.034.03.032.032.034.03.032.032.034.032.034.03.032.032C187.239,6.072,189.708,3.728,188.1,2.292Z" transform="translate(-182.966 -0.203)" fill="#f60"/>
      <path id="Path_290" data-name="Path 290" d="M258.1,72.293l-.017-.016a.075.075,0,0,1-.017-.016l-.017-.016-.017-.016-.017-.014-.05-.048-.017-.016-.015-.016-.017-.016a.079.079,0,0,1-.017-.016l-.034-.032-.017-.014-.05-.048-.017-.016-.015-.016-.017-.016a.077.077,0,0,1-.017-.016l-.017-.016-.017-.016-.017-.014-.05-.048-.017-.016-.017-.014-.017-.016-.034-.032-.017-.016-.017-.014-.034-.032a.079.079,0,0,0-.017-.016l-.017-.016-.016-.016-.017-.016-.034-.032-.017-.014-.017-.016-.017-.016-.034-.032-.017-.016-.015-.016-.017-.016-.034-.032-.017-.016-.017-.014-.017-.016-.034-.032-.017-.016-.015-.016-.017-.016-.034-.032-.017-.016-.017-.014L257,71.249l-.034-.032-.017-.016-.015-.016-.017-.016-.034-.032-.017-.016-.017-.014-.017-.016-.034-.032-.017-.016-.015-.016-.017-.016-.034-.032-.017-.016-.017-.014-.017-.016-.034-.032a.078.078,0,0,0-.017-.016l-.015-.016-.017-.016-.034-.032-.017-.016-.017-.014-.017-.016-.034-.032a.077.077,0,0,0-.017-.016l-.015-.016c-1.512-1.507-3.967.818-2.378,2.254l.017.016.017.016.015.014.017.016.017.016.017.016.017.016.017.016.017.016.017.016.017.016.017.016.015.014.017.016.017.016.017.016.017.016.017.016.017.016.017.016.017.016.017.016.015.014.017.016.017.016.017.016.017.016.017.016.017.016.017.016.017.016.017.016.017.014.015.016.017.016.017.016.017.016.017.016.017.016.017.016.017.016.017.016.017.016.015.014.017.016.017.016.017.016.017.016.017.016.017.016.017.016.017.016.017.016.015.014.017.016.017.016.017.016.017.016.017.016.017.016.017.016.017.016.017.016.015.014.017.016.017.016.017.016.017.016.017.016.017.016.017.016.017.016.017.016.015.014.017.016.017.016.017.016.017.016.017.016.017.016.017.016.017.016.017.016.015.014.017.016.017.016.017.016.017.016.017.016.017.016.017.016.017.016.017.016.015.014.017.016.017.016.017.016.017.016.017.016.017.016C257.234,76.053,259.684,73.729,258.1,72.293Z" transform="translate(-241.184 -59.036)" fill="#f60"/>
      <path id="Path_291" data-name="Path 291" d="M194.157,1.637A1.705,1.705,0,0,0,191.248.552c-.032.018-1.8,1.7-1.831,1.723s-.055.053-.082.08-.057.051-.084.078-.055.053-.082.08-.057.051-.084.078-.055.053-.082.08-.057.051-.084.078-.055.053-.082.08-.057.051-.084.078-.055.053-.082.08-.057.051-.084.078-.055.053-.082.08-.057.051-.084.078-.055.053-.082.08-.057.051-.084.078-.057.053-.084.081-.057.051-.084.078-.055.053-.082.08-.057.051-.084.078-.055.053-.082.08-.057.051-.084.078-.055.053-.082.08-.057.051-.084.078-.055.053-.082.08-.057.051-.084.078-.055.053-.082.08-.057.051-.084.078-.055.053-.082.08-.057.051-.084.078-.055.053-.082.08-.057.051-.084.078-.055.053-.082.08-.057.051-.084.078-.055.053-.082.08-.057.051-.084.078-.055.053-.082.08-.057.051-.084.078-.055.053-.082.08-.057.051-.084.078-.055.053-.082.08-.057.051-.084.078-.055.053-.082.08-.057.051-.084.078-.055.053-.082.08-.057.051-.084.078-.055.053-.082.08-.057.051-.084.08-.055.051-.082.078-.057.051-.084.08-.055.051-.082.078-.057.051-.084.08-.055.051-.082.078-.057.051-.084.08-.055.051-.082.078-.057.051-.084.08-.055.051-.082.078-.057.051-.084.08-.055.051-.082.078-.057.051-.084.08-.055.051-.082.078-.057.051-.084.08-.055.051-.082.078-.057.051-.084.08-.055.051-.082.078l-.084.08-.082.078-.084.08-.082.078c-.029.026-.057.053-.084.08s-.055.051-.082.078l-.084.08-.082.078-.084.08-.082.078c-.029.026-.057.053-.084.08s-.055.051-.082.078-.057.053-.084.08l-.082.078-.084.08-.082.078c-.029.026-.057.053-.084.08s-.055.051-.082.078-.057.053-.084.08-.055.051-.082.078-.057.053-.084.08l-.082.078c-.03.026-.057.053-.084.08s-.055.051-.082.078-.057.053-.084.08-.057.051-.082.078-.057.053-.084.08-.057.051-.082.078-.057.053-.084.08-.057.051-.082.078-.057.053-.084.08-.057.051-.082.078-.057.053-.084.08-.057.051-.082.078-.057.053-.084.08-.651.614-.673.638c-1.671,1.435.861,3.838,2.374,2.251.029-.026.651-.614.673-.638s.055-.053.082-.08.057-.051.084-.078.055-.053.082-.08.057-.051.084-.078.055-.053.082-.08.057-.051.084-.078.055-.053.082-.08.057-.051.084-.078.055-.053.082-.08.057-.051.084-.078.055-.053.082-.08.057-.051.084-.078.055-.053.082-.08.057-.051.084-.078.057-.053.082-.08.057-.051.084-.078.057-.053.082-.08.057-.051.084-.078.057-.053.082-.08.057-.051.084-.078.057-.053.082-.08a.972.972,0,0,0,.084-.08.932.932,0,0,0,.082-.078.969.969,0,0,0,.084-.08c.029-.024.057-.051.084-.078s.055-.051.082-.08.057-.051.084-.078.055-.051.082-.08.057-.051.084-.078.055-.051.082-.08.057-.051.084-.078.055-.051.082-.08.057-.051.084-.078.055-.051.082-.08.057-.051.084-.078.055-.051.082-.08.057-.051.084-.078.055-.051.082-.08.057-.051.084-.078.055-.053.082-.08.057-.051.084-.078.055-.053.082-.08.057-.051.084-.078.055-.053.082-.08.057-.051.084-.078.055-.053.082-.08.057-.051.084-.078.055-.053.082-.08.057-.051.084-.078.055-.053.082-.08.057-.051.084-.078.055-.053.082-.08.057-.051.084-.078.055-.053.082-.08.057-.051.084-.078.055-.053.082-.08.057-.051.084-.078.055-.053.082-.08.057-.051.084-.078.055-.053.082-.08.057-.051.084-.078.055-.053.082-.08.057-.051.084-.078.055-.053.082-.08.057-.051.084-.078.055-.053.082-.08.057-.051.084-.078.055-.053.082-.08.057-.051.084-.078.055-.053.082-.08.057-.051.084-.078.055-.053.082-.08.057-.051.084-.078.055-.053.082-.08.057-.051.084-.078.055-.053.082-.08.057-.051.084-.078.055-.053.082-.08.057-.051.084-.078.055-.053.082-.08.057-.051.084-.078.055-.053.082-.08.057-.051.084-.078.055-.053.082-.08.057-.051.084-.078.055-.053.082-.08.057-.051.084-.078.055-.053.082-.08.057-.051.084-.078.055-.053.082-.08.057-.051.084-.078.055-.053.082-.08.057-.051.084-.078.055-.053.082-.08.057-.051.084-.078.055-.053.082-.08.057-.051.084-.078.055-.053.082-.08,1.8-1.7,1.828-1.731a1.558,1.558,0,0,0,.538-1.157Z" transform="translate(-180.041 -0.051)" fill="#f60"/>
      <path id="Path_292" data-name="Path 292" d="M213.867,17.885a1.707,1.707,0,0,0-2.911-1.086c-.029.026-1.8,1.7-1.826,1.731s-.057.053-.084.08-.055.051-.082.078-.057.053-.084.08l-.082.078c-.029.026-.057.053-.084.08s-.055.051-.082.078-.057.053-.084.08-.055.051-.082.078-.057.053-.084.08-.057.051-.082.078-.057.053-.084.08-.057.051-.082.078-.057.053-.084.08-.057.051-.082.078-.057.053-.084.08-.057.051-.082.078-.057.053-.084.08-.057.051-.082.078-.057.053-.084.08-.057.051-.082.078-.057.053-.084.08-.057.051-.082.078-.057.053-.084.08-.057.051-.084.078-.055.053-.082.08-.057.051-.084.078-.055.053-.082.08-.057.051-.084.078-.055.053-.082.08-.057.051-.084.078-.055.053-.082.08-.057.051-.084.078-.055.053-.082.08-.057.051-.084.078-.055.053-.082.08-.057.051-.084.078-.055.053-.082.08-.057.051-.084.078-.055.053-.082.08-.057.051-.084.078-.055.053-.082.08-.057.051-.084.078-.055.053-.082.08-.057.051-.084.078-.056.053-.082.08-.057.051-.084.078-.055.053-.082.08-.057.051-.084.078-.055.053-.082.08-.057.051-.084.078-.055.053-.082.08-.057.051-.084.078-.055.053-.082.08-.057.051-.084.078-.055.053-.082.08-.057.051-.084.078-.055.053-.082.08-.057.051-.084.078-.055.053-.082.08-.057.051-.084.078-.055.053-.082.08-.057.051-.084.078-.055.053-.082.08-.057.051-.084.078-.055.053-.082.08-.057.051-.084.078-.055.053-.082.08-.057.051-.084.078-.055.053-.082.08-.057.051-.084.078-.055.053-.082.08-.057.051-.084.078-.055.053-.082.08-.057.051-.084.078-.055.053-.082.08-.057.051-.084.08-.055.051-.082.078-.057.051-.084.08-.055.051-.082.078-.057.051-.084.08-.055.051-.082.078-.057.051-.084.08-.055.051-.082.078-.057.051-.084.08-.055.051-.082.078-.057.051-.084.08-.055.051-.082.078-.057.051-.084.08-.055.051-.082.078-.057.051-.084.08-.055.051-.082.078l-.084.08-.082.078c-.029.026-.057.053-.084.08s-.056.051-.082.078-.057.053-.084.08l-.082.078-.084.08c-.029.026-.651.614-.673.638-1.671,1.435.861,3.837,2.374,2.251.029-.026.651-.614.673-.638a.93.93,0,0,0,.082-.078.961.961,0,0,0,.084-.08.927.927,0,0,0,.082-.078.966.966,0,0,0,.084-.08.93.93,0,0,0,.082-.078.963.963,0,0,0,.084-.08c.029-.026.057-.051.084-.078s.055-.051.082-.08.057-.051.084-.078.055-.051.082-.08.057-.051.084-.078.056-.051.082-.08.057-.051.084-.078.056-.053.082-.08.057-.051.084-.078.055-.053.082-.08.057-.051.084-.078.055-.053.082-.08.057-.051.084-.078.055-.053.082-.08.057-.051.084-.078.055-.053.082-.08.057-.051.084-.078.055-.053.082-.08.057-.051.084-.078.055-.053.082-.08.057-.051.084-.078.055-.053.082-.08.057-.051.084-.078.055-.053.082-.08.057-.051.084-.078.055-.053.082-.08.057-.051.084-.078.055-.053.082-.08.057-.051.084-.078.055-.053.082-.08.057-.051.084-.078.055-.053.082-.08.057-.051.084-.078.055-.053.082-.08.057-.051.084-.078.055-.053.082-.08.057-.051.084-.078.055-.053.082-.08.057-.051.084-.078.055-.053.082-.08.057-.051.084-.078.055-.053.082-.08.057-.051.084-.078.055-.053.082-.08.057-.051.084-.078.055-.053.082-.08.057-.051.084-.078.055-.053.082-.08.057-.051.084-.078.055-.053.082-.08.057-.051.084-.078.055-.053.082-.08.057-.051.084-.078.055-.053.082-.08.057-.051.084-.078.055-.053.082-.08.057-.051.084-.078.055-.053.082-.08.057-.051.084-.078.055-.053.082-.08.057-.051.084-.078.055-.053.082-.08.057-.051.084-.078.055-.053.082-.08.057-.051.084-.078.055-.053.082-.08.057-.051.084-.078.055-.053.082-.08.057-.051.084-.078.055-.053.082-.08.057-.051.084-.078.055-.053.082-.08.057-.051.084-.078.055-.053.082-.08.057-.051.084-.078.055-.053.082-.08.057-.051.084-.078.055-.053.082-.08.057-.051.084-.078.055-.053.082-.08.057-.051.084-.078.055-.053.082-.08.057-.051.084-.078.055-.053.082-.08.057-.051.084-.078.055-.053.082-.08.057-.051.084-.078.055-.053.082-.08a.968.968,0,0,0,.084-.08.92.92,0,0,0,.082-.078.97.97,0,0,0,.084-.08.929.929,0,0,0,.082-.078c.03-.026,1.8-1.7,1.828-1.731A1.557,1.557,0,0,0,213.867,17.885Z" transform="translate(-196.439 -13.708)" fill="#f60"/>
    </g>
  </g>
</svg>
